<?xml version="1.0" encoding="UTF-8"?>
<svg id="Capa_2" data-name="Capa 2" xmlns="http://www.w3.org/2000/svg" viewBox="0 0 772.51 157.66">
  <defs>
    <style>
      .cls-1 {
        fill: currentColor;
      }
    </style>
  </defs>
  <g id="Capa_1-2" data-name="Capa 1">
    <g>
      <g>
        <path class="cls-1" d="M73.05,77.42c3.44,4.42,5.17,9.48,5.17,15.15,0,8.19-2.86,14.69-8.59,19.48-5.73,4.8-13.71,7.19-23.95,7.19H0V21.21h44.13c9.96,0,17.76,2.28,23.39,6.84,5.63,4.56,8.45,10.75,8.45,18.58,0,5.77-1.51,10.57-4.54,14.39-3.03,3.82-7.05,6.47-12.08,7.96,5.68,1.21,10.24,4.03,13.69,8.45ZM23.88,60.87h15.64c3.91,0,6.91-.86,9.01-2.58,2.09-1.72,3.14-4.26,3.14-7.61s-1.05-5.91-3.14-7.68c-2.1-1.77-5.1-2.65-9.01-2.65h-15.64v20.53ZM50.77,97.26c2.19-1.82,3.28-4.45,3.28-7.89s-1.14-6.15-3.42-8.1c-2.28-1.96-5.43-2.93-9.43-2.93h-17.32v21.65h17.6c4,0,7.1-.91,9.29-2.72Z"/>
        <path class="cls-1" d="M106.92,115.48c-6.1-3.26-10.89-7.91-14.39-13.97-3.49-6.05-5.24-13.13-5.24-21.23s1.77-15.06,5.31-21.16c3.54-6.1,8.38-10.78,14.53-14.04,6.15-3.26,13.04-4.89,20.67-4.89s14.53,1.63,20.67,4.89c6.15,3.26,10.99,7.94,14.53,14.04,3.54,6.1,5.31,13.15,5.31,21.16s-1.79,15.06-5.38,21.16c-3.59,6.1-8.47,10.78-14.67,14.04-6.19,3.26-13.11,4.89-20.74,4.89s-14.5-1.63-20.6-4.89ZM139.18,94.67c3.21-3.35,4.82-8.15,4.82-14.39s-1.56-11.03-4.68-14.39c-3.12-3.35-6.96-5.03-11.52-5.03s-8.52,1.65-11.59,4.96c-3.07,3.31-4.61,8.12-4.61,14.46s1.51,11.03,4.54,14.39c3.02,3.35,6.82,5.03,11.38,5.03s8.45-1.68,11.66-5.03Z"/>
        <path class="cls-1" d="M215.37,44.18c4.19-2.47,8.84-3.7,13.97-3.7v25.28h-6.56c-5.96,0-10.43,1.28-13.41,3.84-2.98,2.56-4.47,7.05-4.47,13.48v36.17h-23.88V41.32h23.88v12.99c2.79-4.28,6.28-7.66,10.48-10.13Z"/>
        <path class="cls-1" d="M254.33,116.88c-5.31-2.33-9.5-5.52-12.57-9.57-3.07-4.05-4.8-8.59-5.17-13.62h23.6c.28,2.7,1.54,4.89,3.77,6.56,2.23,1.68,4.98,2.51,8.24,2.51,2.98,0,5.28-.58,6.91-1.75,1.63-1.16,2.44-2.68,2.44-4.54,0-2.23-1.17-3.89-3.49-4.96-2.33-1.07-6.1-2.26-11.31-3.56-5.59-1.3-10.24-2.68-13.97-4.12-3.73-1.44-6.94-3.72-9.64-6.84-2.7-3.12-4.05-7.33-4.05-12.64,0-4.47,1.23-8.54,3.7-12.22,2.47-3.68,6.1-6.59,10.89-8.73,4.79-2.14,10.5-3.21,17.11-3.21,9.78,0,17.48,2.42,23.12,7.26,5.63,4.84,8.87,11.27,9.71,19.27h-22.07c-.37-2.7-1.56-4.84-3.56-6.42-2-1.58-4.63-2.37-7.89-2.37-2.79,0-4.94.54-6.42,1.61-1.49,1.07-2.23,2.54-2.23,4.4,0,2.23,1.19,3.91,3.56,5.03,2.37,1.12,6.08,2.23,11.1,3.35,5.77,1.49,10.48,2.96,14.11,4.4,3.63,1.44,6.82,3.77,9.57,6.98,2.75,3.21,4.17,7.52,4.26,12.92,0,4.56-1.28,8.64-3.84,12.22-2.56,3.59-6.24,6.4-11.03,8.45-4.8,2.05-10.36,3.07-16.69,3.07-6.8,0-12.85-1.16-18.16-3.49Z"/>
        <path class="cls-1" d="M333.6,115.48c-6.1-3.26-10.89-7.91-14.39-13.97-3.49-6.05-5.24-13.13-5.24-21.23s1.77-15.06,5.31-21.16c3.54-6.1,8.38-10.78,14.53-14.04,6.15-3.26,13.04-4.89,20.67-4.89s14.53,1.63,20.67,4.89c6.15,3.26,10.99,7.94,14.53,14.04,3.54,6.1,5.31,13.15,5.31,21.16s-1.79,15.06-5.38,21.16c-3.59,6.1-8.47,10.78-14.67,14.04-6.19,3.26-13.11,4.89-20.74,4.89s-14.5-1.63-20.6-4.89ZM365.86,94.67c3.21-3.35,4.82-8.15,4.82-14.39s-1.56-11.03-4.68-14.39c-3.12-3.35-6.96-5.03-11.52-5.03s-8.52,1.65-11.59,4.96c-3.07,3.31-4.61,8.12-4.61,14.46s1.51,11.03,4.54,14.39c3.02,3.35,6.82,5.03,11.38,5.03s8.45-1.68,11.66-5.03Z"/>
        <path class="cls-1" d="M451.75,43.55c4.14,2.23,7.33,5.17,9.57,8.8v-11.03h23.88v77.8c0,7.17-1.42,13.66-4.26,19.48-2.84,5.82-7.17,10.45-12.99,13.9-5.82,3.44-13.06,5.17-21.72,5.17-11.55,0-20.9-2.72-28.07-8.17-7.17-5.45-11.27-12.83-12.29-22.14h23.6c.74,2.98,2.51,5.33,5.31,7.05,2.79,1.72,6.24,2.58,10.34,2.58,4.93,0,8.87-1.42,11.8-4.26,2.93-2.84,4.4-7.38,4.4-13.62v-11.03c-2.33,3.63-5.54,6.59-9.64,8.87-4.1,2.28-8.89,3.42-14.39,3.42-6.42,0-12.25-1.65-17.46-4.96-5.22-3.3-9.34-8.01-12.36-14.11-3.03-6.1-4.54-13.15-4.54-21.16s1.51-15.04,4.54-21.09c3.02-6.05,7.15-10.71,12.36-13.97,5.21-3.26,11.03-4.89,17.46-4.89,5.49,0,10.31,1.12,14.46,3.35ZM456.36,66.18c-3.31-3.44-7.33-5.17-12.08-5.17s-8.78,1.7-12.08,5.1c-3.31,3.4-4.96,8.08-4.96,14.04s1.65,10.68,4.96,14.18c3.3,3.49,7.33,5.24,12.08,5.24s8.78-1.72,12.08-5.17c3.3-3.44,4.96-8.15,4.96-14.11s-1.65-10.66-4.96-14.11Z"/>
        <path class="cls-1" d="M502.31,59.06c3.02-6.05,7.15-10.71,12.36-13.97,5.21-3.26,11.03-4.89,17.46-4.89,5.49,0,10.31,1.12,14.46,3.35,4.14,2.23,7.33,5.17,9.57,8.8v-11.03h23.88v77.94h-23.88v-11.03c-2.33,3.63-5.56,6.56-9.71,8.8-4.14,2.23-8.96,3.35-14.46,3.35-6.33,0-12.11-1.65-17.32-4.96-5.22-3.3-9.34-8.01-12.36-14.11-3.03-6.1-4.54-13.15-4.54-21.16s1.51-15.04,4.54-21.09ZM551.2,66.18c-3.31-3.44-7.33-5.17-12.08-5.17s-8.78,1.7-12.08,5.1c-3.31,3.4-4.96,8.08-4.96,14.04s1.65,10.68,4.96,14.18c3.3,3.49,7.33,5.24,12.08,5.24s8.78-1.72,12.08-5.17c3.3-3.44,4.96-8.15,4.96-14.11s-1.65-10.66-4.96-14.11Z"/>
        <path class="cls-1" d="M625.39,118.43c-1.7-.73-3.04-1.75-4.03-3.06-.99-1.31-1.53-2.81-1.63-4.51h4.79c.14,1.39.79,2.53,1.96,3.41,1.17.88,2.71,1.32,4.61,1.32,1.77,0,3.16-.39,4.18-1.17,1.02-.78,1.53-1.77,1.53-2.96s-.54-2.13-1.63-2.73c-1.09-.59-2.77-1.18-5.05-1.76-2.07-.54-3.76-1.1-5.07-1.66-1.31-.56-2.43-1.39-3.36-2.5-.93-1.1-1.4-2.56-1.4-4.36,0-1.43.42-2.73,1.27-3.92.85-1.19,2.06-2.13,3.62-2.83,1.56-.7,3.35-1.04,5.35-1.04,3.09,0,5.59.78,7.49,2.34,1.9,1.56,2.92,3.7,3.06,6.42h-4.64c-.1-1.46-.69-2.63-1.76-3.52-1.07-.88-2.51-1.32-4.31-1.32-1.67,0-2.99.36-3.98,1.07-.99.71-1.48,1.65-1.48,2.8,0,.92.3,1.67.89,2.27.59.59,1.34,1.07,2.24,1.43s2.15.76,3.75,1.2c2,.54,3.64,1.08,4.89,1.61,1.26.53,2.33,1.32,3.24,2.37.9,1.05,1.37,2.43,1.4,4.13,0,1.53-.42,2.9-1.27,4.13s-2.05,2.18-3.59,2.88c-1.55.7-3.32,1.04-5.33,1.04-2.14,0-4.06-.36-5.76-1.1Z"/>
        <path class="cls-1" d="M653.52,94.96v16.46c0,1.36.29,2.32.87,2.88.58.56,1.58.84,3.01.84h3.41v3.92h-4.18c-2.58,0-4.52-.59-5.81-1.78-1.29-1.19-1.94-3.14-1.94-5.86v-16.46h-3.62v-3.82h3.62v-7.03h4.64v7.03h7.29v3.82h-7.29Z"/>
        <path class="cls-1" d="M691.18,91.14v27.93h-4.64v-4.13c-.88,1.43-2.12,2.54-3.69,3.34-1.58.8-3.32,1.2-5.22,1.2-2.17,0-4.13-.45-5.86-1.35-1.73-.9-3.1-2.25-4.1-4.05-1-1.8-1.5-3.99-1.5-6.57v-16.36h4.59v15.75c0,2.75.7,4.87,2.09,6.34,1.39,1.48,3.29,2.22,5.71,2.22s4.43-.76,5.86-2.29c1.43-1.53,2.14-3.75,2.14-6.68v-15.34h4.64Z"/>
        <path class="cls-1" d="M699.03,97.49c1.16-2.16,2.74-3.83,4.77-5.02,2.02-1.19,4.29-1.78,6.8-1.78,2.17,0,4.2.5,6.06,1.5,1.87,1,3.29,2.32,4.28,3.95v-14.78h4.69v37.71h-4.69v-5.25c-.92,1.67-2.28,3.03-4.08,4.1-1.8,1.07-3.91,1.61-6.32,1.61s-4.73-.61-6.75-1.83c-2.02-1.22-3.61-2.94-4.77-5.15-1.16-2.21-1.73-4.72-1.73-7.54s.58-5.36,1.73-7.52ZM719.66,99.55c-.85-1.56-2-2.76-3.44-3.59-1.44-.83-3.03-1.25-4.76-1.25s-3.31.41-4.74,1.22c-1.43.82-2.57,2.01-3.41,3.57s-1.27,3.4-1.27,5.5.42,4,1.27,5.58,1.99,2.79,3.41,3.62,3.01,1.25,4.74,1.25,3.32-.42,4.76-1.25c1.44-.83,2.59-2.04,3.44-3.62s1.27-3.42,1.27-5.53-.42-3.94-1.27-5.5Z"/>
        <path class="cls-1" d="M733.63,85.69c-.61-.61-.92-1.36-.92-2.24s.31-1.63.92-2.24,1.36-.92,2.24-.92,1.57.31,2.17.92c.59.61.89,1.36.89,2.24s-.3,1.63-.89,2.24c-.6.61-1.32.92-2.17.92s-1.63-.31-2.24-.92ZM738.11,91.14v27.93h-4.64v-27.93h4.64Z"/>
        <path class="cls-1" d="M751.08,117.74c-2.12-1.19-3.79-2.88-4.99-5.07-1.21-2.19-1.81-4.73-1.81-7.62s.62-5.38,1.86-7.57c1.24-2.19,2.93-3.87,5.07-5.05s4.54-1.76,7.19-1.76,5.05.59,7.19,1.76,3.83,2.85,5.07,5.02c1.24,2.17,1.86,4.71,1.86,7.59s-.64,5.43-1.91,7.62-3,3.88-5.17,5.07c-2.17,1.19-4.59,1.78-7.24,1.78s-4.99-.59-7.11-1.78ZM762.88,114.28c1.46-.78,2.64-1.95,3.54-3.52s1.35-3.47,1.35-5.71-.44-4.14-1.32-5.71c-.88-1.56-2.04-2.73-3.47-3.49-1.43-.76-2.97-1.15-4.64-1.15s-3.25.38-4.66,1.15c-1.41.76-2.54,1.93-3.39,3.49-.85,1.56-1.27,3.47-1.27,5.71s.42,4.2,1.25,5.76c.83,1.56,1.94,2.73,3.34,3.49,1.39.76,2.92,1.15,4.59,1.15s3.23-.39,4.69-1.17Z"/>
      </g>
      <path class="cls-1" d="M607.17,0c-8.8,0-15.93,7.12-15.93,15.9s7.13,15.9,15.93,15.9,15.93-7.12,15.93-15.9-7.13-15.9-15.93-15.9ZM606.35,26.8c0,1.35-1.21,2.37-2.51,2.11-5.99-1.2-10.51-6.59-10.51-13.06s4.52-11.87,10.51-13.06c1.3-.26,2.51.75,2.51,2.11,0,1.03-.71,1.91-1.69,2.11-4.04.82-7.12,4.49-7.12,8.84s3.08,8.03,7.12,8.84c.98.2,1.69,1.08,1.69,2.11h0ZM600.67,15.84c0-3.62,2.94-6.56,6.58-6.56s6.58,2.94,6.58,6.56-2.94,6.56-6.58,6.56-6.58-2.94-6.58-6.56ZM610.48,28.91c-1.3.26-2.51-.75-2.51-2.11,0-1.03.71-1.91,1.69-2.11,4.04-.82,7.12-4.49,7.12-8.84s-3.08-8.03-7.12-8.84c-.98-.2-1.69-1.08-1.69-2.11,0-1.35,1.21-2.37,2.51-2.11,5.99,1.2,10.51,6.59,10.51,13.06s-4.52,11.87-10.51,13.06Z"/>
    </g>
  </g>
</svg>