
<svg  viewBox="0 0 371 67" fill="none" xmlns="http://www.w3.org/2000/svg">
<path d="M13.5926 27.3716V64.9939H0V2.70471H13.6196L35.4273 42.599L57.6132 2.70471H70.8816V65.021H57.289V27.5339L35.5894 66.9413L13.5926 27.3716Z" fill="currentColor"/>
<path d="M91.5542 34.4849V2.70471H105.255V34.4849C105.255 46.3045 109.903 53.1473 121.09 53.1473C132.278 53.1473 136.926 46.3045 136.926 34.5661V2.70471H150.789V34.5661C150.789 53.7153 140.547 65.8324 121.09 65.8324C101.634 65.8324 91.5542 53.8235 91.5542 34.4849Z" fill="currentColor"/>
<path d="M184.757 15.1193H164.976L164.895 2.67767H217.995V15.1193H198.242V64.994H184.784V15.1193H184.757Z" fill="currentColor"/>
<path d="M254.179 0L289.877 64.9939H275.23L268.934 53.2555H239.236L232.966 64.9939H218.022L254.179 0ZM262.854 41.9228L254.017 25.4783L245.235 41.9228H262.827H262.854Z" fill="currentColor"/>
<path d="M308.793 15.1193H289.012L288.931 2.67767H342.032V15.1193H322.278V64.994H308.82V15.1193H308.793Z" fill="currentColor"/>
<path d="M357.326 2.70471H371V65.021H357.326V2.70471Z" fill="currentColor"/>
</svg>
