<svg width="45" height="52" viewBox="0 0 45 52" fill="none" xmlns="http://www.w3.org/2000/svg">
<g clip-path="url(#clip0_4_87)">
<path d="M21.5013 19.2784L25.9514 9.45455L36.7314 33.9034H45V36.7841H37.1867V51.9557H34.3228V36.7841H27.611C27.5669 38.5568 27.6844 40.3295 27.611 42.1023C27.4347 46.992 25.452 51.1875 20.1795 51.8818C13.688 52.7386 9.41417 48.8386 9.28199 42.3386V27.3148H12.2193V42.9443C12.5571 47.1989 15.0392 49.3409 19.2689 49.0602C22.735 48.8386 24.4533 46.3125 24.6736 43.0182V28.792H20.4586L18.564 33.1205L15.3916 33.15L18.564 25.9261V9.51364L11.6759 19.6773C11.6172 19.7659 11.5437 19.7659 11.4703 19.7659C11.1913 19.8102 10.4129 19.7955 10.1191 19.7659C9.78133 19.7364 9.81071 19.5886 9.61978 19.3523L2.8639 9.45455V51.9557H0V0.0590909L10.78 15.8364L21.5013 0V19.2784ZM21.795 25.8523H29.9755L25.9073 16.708L21.7804 25.8523H21.795ZM33.5297 33.9034L31.2386 28.8068H27.611V33.9034H33.5297Z" fill="#493E2A"/>
<path d="M40.6969 31.7761C42.1813 31.7761 43.3846 30.5658 43.3846 29.0727C43.3846 27.5797 42.1813 26.3693 40.6969 26.3693C39.2126 26.3693 38.0093 27.5797 38.0093 29.0727C38.0093 30.5658 39.2126 31.7761 40.6969 31.7761Z" fill="#493E2A"/>
</g>
<defs>
<clipPath id="clip0_4_87">
<rect width="45" height="52" fill="white"/>
</clipPath>
</defs>
</svg>
